<svg width="48" height="48" viewBox="0 0 48 48" fill="none" xmlns="http://www.w3.org/2000/svg">
<g id="gym">
<g id="gym_2">
<path d="M40.5478 19.7377L33.6649 9.90783L36.9415 7.61353L43.8245 17.4433L40.5478 19.7377Z" fill="white"/>
<path d="M36.7801 24.8172L33.3387 19.9024L16.9557 31.374L20.3971 36.2888L17.1205 38.5831L7.94325 25.4767L11.2199 23.1824L14.6614 28.0974L31.0444 16.6258L27.6029 11.7108L30.8795 9.4165L40.0567 22.5229L36.7801 24.8172Z" fill="white"/>
<path d="M41.5302 14.1666L44.8068 11.8723L42.5125 8.5957L39.2359 10.89L41.5302 14.1666Z" fill="white"/>
<path d="M14.3351 38.0919L7.45216 28.2621L4.17555 30.5564L11.0585 40.3862L14.3351 38.0919Z" fill="white"/>
<path d="M8.76417 37.1097L5.48756 39.404L3.19325 36.1274L6.46986 33.8331L8.76417 37.1097Z" fill="white"/>
</g>
</g>
</svg>
